<?xml version="1.0" standalone="no"?>
<!DOCTYPE svg PUBLIC "-//W3C//DTD SVG 20010904//EN"
 "http://www.w3.org/TR/2001/REC-SVG-20010904/DTD/svg10.dtd">
<svg version="1.0" xmlns="http://www.w3.org/2000/svg"
 width="300.000000pt" height="300.000000pt" viewBox="0 0 300.000000 300.000000"
 preserveAspectRatio="xMidYMid meet">

<g transform="translate(0.000000,300.000000) scale(0.100000,-0.100000)"
fill="#000000" stroke="none">
<path d="M1815 1697 c-19 -19 -35 -40 -35 -46 0 -6 13 3 29 21 16 18 33 30 37
25 4 -4 -2 -17 -13 -30 -26 -28 -46 -67 -39 -74 8 -8 54 24 65 46 16 29 18 83
3 88 -7 3 -28 -11 -47 -30z"/>
<path d="M1610 1678 c0 -18 5 -40 10 -48 7 -11 8 -5 5 20 l-6 35 23 -42 c24
-47 38 -55 38 -22 0 29 -15 53 -45 73 l-25 16 0 -32z"/>
<path d="M1493 1498 c-13 -6 -23 -14 -23 -18 0 -12 45 -39 76 -45 28 -6 28 -5
-3 9 -48 22 -40 28 23 20 64 -8 68 7 8 32 -39 16 -51 17 -81 2z"/>
</g>
</svg>
